<svg xmlns="http://www.w3.org/2000/svg" width="2500" height="2500" viewBox="0 0 192.756 192.756">
    <g fill-rule="evenodd" clip-rule="evenodd">
        <path
            d="m 65.286 71.99 c -0.59 -0.586 -1.16 -1.168 -1.726 -1.752 c 0.79 -0.97 1.6 -1.93 2.404 -2.876 l 3.784 -4.624 c 0.734 -0.898 0.552 -2.154 -0.342 -2.888 c -0.896 -0.732 -2.264 -0.54 -2.998 0.356 l -3.638 4.442 c -0.676 0.792 -1.346 1.6 -2.014 2.408 c -1.124 -1.44 -2.084 -2.946 -2.704 -4.644 a 2.094 2.094 90 0 0 -2.688 -1.248 a 2.092 2.092 90 0 0 -1.252 2.686 c 0.924 2.53 2.368 4.656 4.002 6.608 c -1.608 2.234 -3.032 4.604 -4.002 7.254 a 2.096 2.096 90 0 0 3.936 1.442 c 0.712 -1.942 1.778 -3.76 2.98 -5.516 c 0.432 0.444 0.864 0.89 1.298 1.32 l 4.132 4.394 c 0.794 0.844 2.21 0.984 3.05 0.194 c 0.844 -0.792 0.976 -2.018 0.184 -2.862 l -4.406 -4.694 z m 54.268 -4.078 a 55.5 55.5 90 0 1 -7.45 -4.932 a 170.576 170.576 90 0 1 3.664 -6.198 a 2.094 2.094 90 1 0 -3.562 -2.202 a 183.268 183.268 90 0 0 -3.368 5.658 a 107.006 107.006 90 0 1 -5.344 -5.19 a 2.096 2.096 90 1 0 -3.006 2.922 c 2.18 2.24 4.21 4.226 6.29 6.044 c -1.618 3.134 -3.02 6.292 -3.898 9.276 a 2.096 2.096 90 1 0 4.02 1.184 c 0.718 -2.434 1.876 -5.084 3.21 -7.732 a 59.296 59.296 90 0 0 7.414 4.834 c 1.012 0.56 2.286 0.196 2.848 -0.814 a 2.1 2.1 90 0 0 -0.818 -2.85 z m 21.65 20.002 c 1.094 0.378 2.09 -0.252 2.472 -1.346 c 0.382 -1.092 -0.382 -2.344 -1.476 -2.726 l -3.96 -1.39 c -2.066 -0.834 -4.2 -1.698 -6.648 -1.968 a 2.108 2.108 90 0 0 -2.316 1.856 a 2.104 2.104 90 0 0 1.856 2.314 c 0.754 0.08 1.492 0.262 2.226 0.48 c -0.23 11.316 -4 23.324 -10.464 33.092 a 46.32 46.32 90 0 1 -7.89 9.082 c -2.196 1.946 -3.352 1.958 -5.656 1.976 l -4.864 0.426 c -2.09 0.42 -3.714 1.298 -5.152 2.074 c -1.554 0.84 -2.898 1.562 -4.648 1.654 c -4.284 0.226 -9.772 -1.01 -12.764 -2.88 c -2.772 -1.724 -5.176 -4.32 -7.502 -6.832 l -2.366 -2.512 c -3.358 -3.432 -6.884 -3.85 -10.618 -4.29 l -3.7 -0.538 c -5.266 -1.008 -6.764 -4.962 -8.774 -11.334 l -1.422 -3.988 c 1.116 -0.368 2.146 -0.628 2.916 -0.688 a 2.098 2.098 90 0 0 -0.32 -4.184 c -3.824 0.296 -10 3.166 -12.754 5.438 a 2.096 2.096 90 0 0 2.668 3.238 c 0.876 -0.724 2.186 -1.506 3.616 -2.212 l 1.298 3.656 c 1.872 5.934 3.992 12.66 11.98 14.198 l 4 0.58 c 3.362 0.396 5.79 0.682 8.112 3.054 l 2.288 2.426 c 2.512 2.714 5.112 5.526 8.36 7.55 c 4.376 2.726 10.946 3.73 15.2 3.506 c 2.696 -0.138 4.676 -1.212 6.426 -2.156 c 1.286 -0.696 2.504 -1.354 3.976 -1.648 l 4.086 -0.344 c 2.582 -0.024 5.024 -0.046 8.39 -3.036 c 2.558 -2.264 4.79 -4.844 6.828 -7.562 l 2.708 2.278 c 3.628 3.288 7.742 7.012 11.554 5.748 c 2.218 -0.726 3.652 -2.878 4.382 -6.564 c 1.48 -7.448 -2.386 -12.852 -10.808 -15.358 c 2.96 -7.202 4.71 -14.886 5.046 -22.36 l 3.714 1.29 z m -2.064 35.608 c -0.454 2.274 -1.118 3.25 -1.59 3.406 c -1.492 0.492 -5.352 -3 -7.43 -4.88 l -3.086 -2.576 c 0.296 -0.468 0.582 -0.95 0.868 -1.426 c 2.016 0.882 3.512 2.668 5.046 4.612 a 2.1 2.1 90 0 0 3.29 -2.604 c -1.656 -2.09 -3.546 -4.348 -6.3 -5.678 c 0.27 -0.516 0.546 -1.03 0.8 -1.556 c 9.966 2.722 8.798 8.714 8.402 10.702 z m -51.028 -93.392 c -2.162 0.06 -52.906 1.946 -55.514 39.812 a 2.8 2.8 90 0 1 0.044 -0.368 c -0.954 5.154 -2.38 11.514 -3.022 12.792 a 3.546 3.546 90 0 0 -0.204 0.512 c -0.57 1.888 -13.632 46.476 15.942 63.692 c 0.59 0.342 58.062 32.602 100.676 -9.592 c 0.118 -0.116 0.226 -0.24 0.324 -0.372 c 0.286 -0.388 28.394 -39.13 2.098 -75.774 c -25.538 -35.582 -57.616 -31.152 -60.344 -30.702 z m -49.128 40.616 c 0.022 -0.12 0.038 -0.242 0.044 -0.366 c 2.248 -32.586 48.9 -33.798 49.372 -33.808 a 3.58 3.58 90 0 0 0.504 -0.048 c 1.24 -0.214 30.658 -4.888 54.314 28.07 c 7.574 10.554 10.168 21.232 10.168 30.91 c 0 19.818 -10.804 35.314 -12.054 37.038 c -39.07 38.46 -90.57 9.692 -92.746 8.446 c -25.15 -14.644 -13.118 -55.832 -12.994 -56.25 a 3.354 3.354 90 0 1 -0.204 0.514 c 1.342 -2.682 3.092 -11.78 3.596 -14.506 z"
            fill="currentColor" />
    </g>
</svg>